<?xml version="1.0" standalone="no"?>
<!DOCTYPE svg PUBLIC "-//W3C//DTD SVG 20010904//EN"
 "http://www.w3.org/TR/2001/REC-SVG-20010904/DTD/svg10.dtd">
<svg version="1.0" xmlns="http://www.w3.org/2000/svg"
 width="70.000000pt" height="70.000000pt" viewBox="0 0 70.000000 70.000000"
 preserveAspectRatio="xMidYMid meet">
<metadata>
Created by potrace 1.14, written by Peter Selinger 2001-2017
</metadata>
<g transform="translate(0.000000,70.000000) scale(0.100000,-0.100000)"
fill="#000000" stroke="none">
<path d="M76 614 c-24 -23 -24 -515 0 -538 13 -14 53 -16 284 -16 l268 0 6 23
c10 39 7 507 -4 528 -10 18 -24 19 -275 19 -226 0 -266 -2 -279 -16z m148
-206 c14 -23 -2 -37 -18 -15 -7 9 -23 17 -35 17 -35 0 -22 -32 16 -42 55 -14
67 -72 18 -84 -34 -9 -67 -1 -79 18 -14 23 1 36 17 14 8 -11 23 -17 37 -14 40
5 34 27 -14 48 -47 20 -59 43 -34 68 18 18 79 11 92 -10z m56 -8 c0 -28 3 -30
35 -30 32 0 35 2 35 30 0 20 5 30 15 30 12 0 15 -15 15 -75 0 -60 -3 -75 -15
-75 -10 0 -15 11 -15 35 0 33 -2 35 -35 35 -33 0 -35 -2 -35 -35 0 -19 -4 -35
-10 -35 -6 0 -10 32 -10 75 0 43 4 75 10 75 6 0 10 -13 10 -30z m150 -45 c0
-60 -3 -75 -15 -75 -12 0 -15 15 -15 75 0 60 3 75 15 75 12 0 15 -15 15 -75z
m85 23 l35 -53 0 53 c0 40 4 52 15 52 12 0 15 -15 15 -75 0 -65 -2 -75 -17
-75 -11 0 -32 23 -50 53 l-32 52 -1 -52 c0 -40 -4 -53 -15 -53 -12 0 -15 15
-15 75 0 93 14 98 65 23z m85 -148 c0 -6 -88 -10 -245 -10 -157 0 -245 4 -245
10 0 6 88 10 245 10 157 0 245 -4 245 -10z"/>
</g>
</svg>
